<?xml version="1.0" encoding="utf-8"?>
<!-- Generator: Adobe Illustrator 25.1.0, SVG Export Plug-In . SVG Version: 6.00 Build 0)  -->
<svg version="1.1" id="레이어_1" xmlns="http://www.w3.org/2000/svg" xmlns:xlink="http://www.w3.org/1999/xlink" x="0px"
	 y="0px" viewBox="0 0 49 50" style="enable-background:new 0 0 49 50;" xml:space="preserve">
<style type="text/css">
	.st0{fill:#E5E8EB;}
</style>
<path class="st0" d="M24.5,49.2C11,49.2,0,38.2,0,24.7C0,11.2,11,0.2,24.5,0.2C38,0.2,49,11.2,49,24.7C49,38.2,38,49.2,24.5,49.2z
	 M24.5,3.2C12.6,3.2,3,12.9,3,24.7c0,11.9,9.6,21.5,21.5,21.5c11.9,0,21.5-9.6,21.5-21.5C46,12.9,36.4,3.2,24.5,3.2z"/>
<path class="st0" d="M21.8,35.8c-0.3,0-0.7-0.1-1-0.4c-0.6-0.5-0.7-1.5-0.2-2.1l7.3-8.6l-7.3-8.6c-0.5-0.6-0.5-1.6,0.2-2.1
	c0.6-0.5,1.6-0.5,2.1,0.2l8.2,9.5c0.5,0.6,0.5,1.4,0,2l-8.2,9.5C22.6,35.6,22.2,35.8,21.8,35.8z"/>
</svg>
